<svg width="600" height="600" viewBox="0 0 600 600" fill="none" xmlns="http://www.w3.org/2000/svg">
<circle cx="300" cy="300" r="299" fill="#FFC700" stroke="black" stroke-width="2"/>
<line x1="593.386" y1="352.239" x2="6.44049" y2="248.745" stroke="black"/>
<line x1="579.857" y1="402.392" x2="19.8006" y2="198.548" stroke="black"/>
<line x1="557.826" y1="449.433" x2="41.6744" y2="151.433" stroke="black"/>
<line x1="527.96" y1="491.934" x2="71.3974" y2="108.832" stroke="black"/>
<line x1="491.168" y1="528.603" x2="108.066" y2="72.0402" stroke="black"/>
<line x1="448.567" y1="558.326" x2="150.567" y2="42.1746" stroke="black"/>
<line x1="401.452" y1="580.199" x2="197.608" y2="20.1425" stroke="black"/>
<line x1="351.255" y1="593.559" x2="247.76" y2="6.61407" stroke="black"/>
<line x1="299.5" y1="598" x2="299.5" y2="2" stroke="black"/>
<line x1="247.76" y1="593.386" x2="351.255" y2="6.44043" stroke="black"/>
<line x1="197.608" y1="579.857" x2="401.452" y2="19.8005" stroke="black"/>
<line x1="150.567" y1="557.826" x2="448.567" y2="41.6746" stroke="black"/>
<line x1="108.066" y1="527.96" x2="491.168" y2="71.3974" stroke="black"/>
<line x1="71.3974" y1="491.168" x2="527.96" y2="108.066" stroke="black"/>
<line x1="41.6744" y1="448.567" x2="557.826" y2="150.567" stroke="black"/>
<line x1="19.8006" y1="401.452" x2="579.857" y2="197.608" stroke="black"/>
<line x1="6.44049" y1="351.255" x2="593.386" y2="247.76" stroke="black"/>
<line x1="2" y1="299.5" x2="598" y2="299.5" stroke="black"/>
<g filter="url(#filter0_i_47_4)">
<circle cx="300" cy="300" r="280" fill="#FFC700"/>
</g>
<circle cx="300" cy="300" r="200" stroke="black" stroke-opacity="0.5" stroke-width="2"/>
<mask id="path-22-outside-1_47_4" maskUnits="userSpaceOnUse" x="222" y="161" width="155" height="278" fill="black">
<rect fill="white" x="222" y="161" width="155" height="278"/>
<path d="M292.629 436.273V163.545H306.585V436.273H292.629ZM352.607 245.364C351.4 233.219 346.038 223.56 336.521 216.386C327.004 209.213 315.036 205.626 300.619 205.626C290.462 205.626 281.513 207.366 273.772 210.847C266.102 214.327 260.065 219.156 255.661 225.335C251.329 231.443 249.163 238.403 249.163 246.216C249.163 251.969 250.406 257.011 252.891 261.344C255.377 265.676 258.715 269.405 262.906 272.53C267.167 275.584 271.854 278.212 276.968 280.413C282.153 282.615 287.373 284.462 292.629 285.953L315.64 292.558C322.6 294.476 329.56 296.926 336.521 299.909C343.481 302.892 349.837 306.656 355.59 311.202C361.414 315.676 366.066 321.18 369.546 327.714C373.097 334.178 374.873 341.955 374.873 351.045C374.873 362.693 371.854 373.169 365.817 382.473C359.781 391.777 351.116 399.163 339.823 404.632C328.531 410.03 315.001 412.729 299.234 412.729C284.39 412.729 271.499 410.278 260.562 405.378C249.624 400.406 241.031 393.553 234.781 384.817C228.531 376.081 225.015 365.96 224.234 354.455H244.688C245.398 363.048 248.239 370.328 253.211 376.294C258.183 382.26 264.646 386.805 272.6 389.93C280.555 392.984 289.433 394.511 299.234 394.511C310.1 394.511 319.759 392.7 328.211 389.078C336.734 385.385 343.41 380.271 348.239 373.737C353.14 367.132 355.59 359.462 355.59 350.726C355.59 343.339 353.673 337.161 349.837 332.189C346.002 327.146 340.64 322.92 333.751 319.511C326.933 316.102 319.013 313.084 309.994 310.456L283.893 302.786C266.776 297.672 253.495 290.605 244.049 281.585C234.603 272.565 229.88 261.06 229.88 247.068C229.88 235.349 233.005 225.051 239.255 216.173C245.576 207.224 254.099 200.264 264.823 195.293C275.619 190.25 287.728 187.729 301.151 187.729C314.717 187.729 326.719 190.214 337.16 195.186C347.6 200.158 355.874 207.011 361.982 215.747C368.161 224.412 371.464 234.284 371.89 245.364H352.607Z"/>
</mask>
<g filter="url(#filter1_i_47_4)">
<path d="M292.629 436.273V163.545H306.585V436.273H292.629ZM352.607 245.364C351.4 233.219 346.038 223.56 336.521 216.386C327.004 209.213 315.036 205.626 300.619 205.626C290.462 205.626 281.513 207.366 273.772 210.847C266.102 214.327 260.065 219.156 255.661 225.335C251.329 231.443 249.163 238.403 249.163 246.216C249.163 251.969 250.406 257.011 252.891 261.344C255.377 265.676 258.715 269.405 262.906 272.53C267.167 275.584 271.854 278.212 276.968 280.413C282.153 282.615 287.373 284.462 292.629 285.953L315.64 292.558C322.6 294.476 329.56 296.926 336.521 299.909C343.481 302.892 349.837 306.656 355.59 311.202C361.414 315.676 366.066 321.18 369.546 327.714C373.097 334.178 374.873 341.955 374.873 351.045C374.873 362.693 371.854 373.169 365.817 382.473C359.781 391.777 351.116 399.163 339.823 404.632C328.531 410.03 315.001 412.729 299.234 412.729C284.39 412.729 271.499 410.278 260.562 405.378C249.624 400.406 241.031 393.553 234.781 384.817C228.531 376.081 225.015 365.96 224.234 354.455H244.688C245.398 363.048 248.239 370.328 253.211 376.294C258.183 382.26 264.646 386.805 272.6 389.93C280.555 392.984 289.433 394.511 299.234 394.511C310.1 394.511 319.759 392.7 328.211 389.078C336.734 385.385 343.41 380.271 348.239 373.737C353.14 367.132 355.59 359.462 355.59 350.726C355.59 343.339 353.673 337.161 349.837 332.189C346.002 327.146 340.64 322.92 333.751 319.511C326.933 316.102 319.013 313.084 309.994 310.456L283.893 302.786C266.776 297.672 253.495 290.605 244.049 281.585C234.603 272.565 229.88 261.06 229.88 247.068C229.88 235.349 233.005 225.051 239.255 216.173C245.576 207.224 254.099 200.264 264.823 195.293C275.619 190.25 287.728 187.729 301.151 187.729C314.717 187.729 326.719 190.214 337.16 195.186C347.6 200.158 355.874 207.011 361.982 215.747C368.161 224.412 371.464 234.284 371.89 245.364H352.607Z" fill="#FFD600"/>
</g>
<path d="M292.629 436.273H290.629V438.273H292.629V436.273ZM292.629 163.545V161.545H290.629V163.545H292.629ZM306.585 163.545H308.585V161.545H306.585V163.545ZM306.585 436.273V438.273H308.585V436.273H306.585ZM352.607 245.364L350.617 245.561L350.796 247.364H352.607V245.364ZM336.521 216.386L337.724 214.789L337.724 214.789L336.521 216.386ZM273.772 210.847L272.952 209.022L272.946 209.025L273.772 210.847ZM255.661 225.335L254.032 224.175L254.03 224.178L255.661 225.335ZM252.891 261.344L251.157 262.339L251.157 262.339L252.891 261.344ZM262.906 272.53L261.71 274.133L261.725 274.144L261.741 274.155L262.906 272.53ZM276.968 280.413L276.177 282.25L276.186 282.254L276.968 280.413ZM292.629 285.953L293.18 284.031L293.175 284.029L292.629 285.953ZM315.64 292.558L315.088 294.481L315.098 294.484L315.109 294.486L315.64 292.558ZM355.59 311.202L354.35 312.771L354.361 312.779L354.372 312.788L355.59 311.202ZM369.546 327.714L367.781 328.655L367.787 328.666L367.793 328.678L369.546 327.714ZM365.817 382.473L364.14 381.384L364.14 381.384L365.817 382.473ZM339.823 404.632L340.686 406.437L340.695 406.432L339.823 404.632ZM260.562 405.378L259.734 407.199L259.744 407.203L260.562 405.378ZM224.234 354.455V352.455H222.093L222.238 354.59L224.234 354.455ZM244.688 354.455L246.681 354.29L246.53 352.455H244.688V354.455ZM272.6 389.93L271.869 391.792L271.876 391.795L271.883 391.798L272.6 389.93ZM328.211 389.078L328.999 390.916L329.006 390.913L328.211 389.078ZM348.239 373.737L346.633 372.546L346.631 372.548L348.239 373.737ZM349.837 332.189L348.245 333.4L348.254 333.411L349.837 332.189ZM333.751 319.511L332.856 321.3L332.864 321.304L333.751 319.511ZM309.994 310.456L309.43 312.375L309.434 312.376L309.994 310.456ZM283.893 302.786L283.32 304.702L283.329 304.704L283.893 302.786ZM244.049 281.585L245.43 280.139L245.43 280.139L244.049 281.585ZM239.255 216.173L237.621 215.019L237.62 215.022L239.255 216.173ZM264.823 195.293L265.664 197.107L265.67 197.105L264.823 195.293ZM337.16 195.186L336.3 196.992L336.3 196.992L337.16 195.186ZM361.982 215.747L360.343 216.893L360.348 216.901L360.354 216.908L361.982 215.747ZM371.89 245.364V247.364H373.968L373.888 245.287L371.89 245.364ZM294.629 436.273V163.545H290.629V436.273H294.629ZM292.629 165.545H306.585V161.545H292.629V165.545ZM304.585 163.545V436.273H308.585V163.545H304.585ZM306.585 434.273H292.629V438.273H306.585V434.273ZM354.597 245.166C353.336 232.48 347.7 222.308 337.724 214.789L335.317 217.983C344.376 224.812 349.463 233.957 350.617 245.561L354.597 245.166ZM337.724 214.789C327.793 207.303 315.377 203.626 300.619 203.626V207.626C314.695 207.626 326.215 211.123 335.317 217.983L337.724 214.789ZM300.619 203.626C290.234 203.626 280.997 205.406 272.952 209.022L274.592 212.671C282.03 209.327 290.69 207.626 300.619 207.626V203.626ZM272.946 209.025C264.99 212.635 258.662 217.678 254.032 224.175L257.29 226.496C261.467 220.635 267.213 216.019 274.598 212.668L272.946 209.025ZM254.03 224.178C249.447 230.639 247.163 238.008 247.163 246.216H251.163C251.163 238.799 253.211 232.247 257.293 226.492L254.03 224.178ZM247.163 246.216C247.163 252.264 248.472 257.66 251.157 262.339L254.626 260.348C252.339 256.362 251.163 251.673 251.163 246.216H247.163ZM251.157 262.339C253.785 266.92 257.311 270.852 261.71 274.133L264.101 270.927C260.12 267.957 256.969 264.432 254.626 260.348L251.157 262.339ZM261.741 274.155C266.126 277.298 270.94 279.995 276.177 282.25L277.759 278.576C272.769 276.428 268.208 273.869 264.071 270.904L261.741 274.155ZM276.186 282.254C281.445 284.488 286.744 286.362 292.083 287.877L293.175 284.029C288.002 282.561 282.86 280.743 277.75 278.572L276.186 282.254ZM292.077 287.875L315.088 294.481L316.192 290.636L293.18 284.031L292.077 287.875ZM315.109 294.486C321.977 296.379 328.852 298.798 335.733 301.747L337.308 298.071C330.269 295.054 323.223 292.573 316.171 290.63L315.109 294.486ZM335.733 301.747C342.536 304.663 348.74 308.338 354.35 312.771L356.83 309.632C350.935 304.974 344.425 301.121 337.308 298.071L335.733 301.747ZM354.372 312.788C359.968 317.087 364.434 322.37 367.781 328.655L371.311 326.774C367.698 319.991 362.861 314.265 356.809 309.616L354.372 312.788ZM367.793 328.678C371.149 334.784 372.873 342.214 372.873 351.045H376.873C376.873 341.695 375.046 333.571 371.299 326.751L367.793 328.678ZM372.873 351.045C372.873 362.327 369.955 372.421 364.14 381.384L367.495 383.562C373.753 373.917 376.873 363.059 376.873 351.045H372.873ZM364.14 381.384C358.327 390.343 349.96 397.501 338.951 402.832L340.695 406.432C352.272 400.826 361.234 393.211 367.495 383.562L364.14 381.384ZM338.961 402.828C327.998 408.068 314.778 410.729 299.234 410.729V414.729C315.224 414.729 329.063 411.992 340.686 406.437L338.961 402.828ZM299.234 410.729C284.606 410.729 272.006 408.314 261.38 403.553L259.744 407.203C270.992 412.243 284.173 414.729 299.234 414.729V410.729ZM261.389 403.557C250.733 398.713 242.43 392.071 236.407 383.653L233.154 385.98C239.631 395.034 248.516 402.099 259.734 407.199L261.389 403.557ZM236.407 383.653C230.389 375.241 226.987 365.483 226.229 354.319L222.238 354.59C223.043 366.438 226.672 376.92 233.154 385.98L236.407 383.653ZM224.234 356.455H244.688V352.455H224.234V356.455ZM242.695 354.619C243.435 363.576 246.411 371.258 251.674 377.574L254.747 375.014C250.068 369.398 247.362 362.521 246.681 354.29L242.695 354.619ZM251.674 377.574C256.882 383.824 263.633 388.557 271.869 391.792L273.331 388.069C265.658 385.054 259.483 380.696 254.747 375.014L251.674 377.574ZM271.883 391.798C280.098 394.951 289.224 396.511 299.234 396.511V392.511C289.641 392.511 281.011 391.017 273.317 388.063L271.883 391.798ZM299.234 396.511C310.323 396.511 320.257 394.663 328.999 390.916L327.423 387.24C319.261 390.738 309.878 392.511 299.234 392.511V396.511ZM329.006 390.913C337.805 387.1 344.78 381.782 349.848 374.926L346.631 372.548C342.039 378.761 335.662 383.67 327.416 387.243L329.006 390.913ZM349.846 374.929C355.018 367.957 357.59 359.862 357.59 350.726H353.59C353.59 359.061 351.262 366.307 346.633 372.546L349.846 374.929ZM357.59 350.726C357.59 342.978 355.572 336.348 351.421 330.967L348.254 333.411C351.773 337.973 353.59 343.701 353.59 350.726H357.59ZM351.429 330.978C347.371 325.643 341.745 321.236 334.638 317.719L332.864 321.304C339.534 324.605 344.633 328.65 348.245 333.4L351.429 330.978ZM334.645 317.723C327.698 314.249 319.663 311.19 310.553 308.536L309.434 312.376C318.364 314.978 326.167 317.956 332.856 321.3L334.645 317.723ZM310.558 308.537L284.457 300.867L283.329 304.704L309.43 312.375L310.558 308.537ZM284.465 300.869C267.546 295.814 254.579 288.875 245.43 280.139L242.668 283.032C252.411 292.335 266.007 299.529 283.32 304.702L284.465 300.869ZM245.43 280.139C236.41 271.525 231.88 260.557 231.88 247.068H227.88C227.88 261.563 232.796 273.605 242.668 283.032L245.43 280.139ZM231.88 247.068C231.88 235.727 234.897 225.838 240.89 217.325L237.62 215.022C231.113 224.264 227.88 234.972 227.88 247.068H231.88ZM240.889 217.327C246.992 208.686 255.231 201.944 265.664 197.107L263.982 193.478C252.966 198.585 244.16 205.762 237.621 215.019L240.889 217.327ZM265.67 197.105C276.168 192.201 287.983 189.729 301.151 189.729V185.729C287.473 185.729 275.069 188.299 263.977 193.481L265.67 197.105ZM301.151 189.729C314.47 189.729 326.171 192.168 336.3 196.992L338.02 193.38C327.268 188.261 314.963 185.729 301.151 185.729V189.729ZM336.3 196.992C346.455 201.828 354.45 208.465 360.343 216.893L363.621 214.601C357.298 205.558 348.745 198.488 338.02 193.38L336.3 196.992ZM360.354 216.908C366.297 225.242 369.48 234.734 369.891 245.44L373.888 245.287C373.448 233.835 370.026 223.582 363.611 214.586L360.354 216.908ZM371.89 243.364H352.607V247.364H371.89V243.364Z" fill="black" fill-opacity="0.5" mask="url(#path-22-outside-1_47_4)"/>
<defs>
<filter id="filter0_i_47_4" x="20" y="20" width="560" height="560" filterUnits="userSpaceOnUse" color-interpolation-filters="sRGB">
<feFlood flood-opacity="0" result="BackgroundImageFix"/>
<feBlend mode="normal" in="SourceGraphic" in2="BackgroundImageFix" result="shape"/>
<feColorMatrix in="SourceAlpha" type="matrix" values="0 0 0 0 0 0 0 0 0 0 0 0 0 0 0 0 0 0 127 0" result="hardAlpha"/>
<feMorphology radius="5" operator="erode" in="SourceAlpha" result="effect1_innerShadow_47_4"/>
<feOffset/>
<feGaussianBlur stdDeviation="2.5"/>
<feComposite in2="hardAlpha" operator="arithmetic" k2="-1" k3="1"/>
<feColorMatrix type="matrix" values="0 0 0 0 0 0 0 0 0 0 0 0 0 0 0 0 0 0 0.8 0"/>
<feBlend mode="normal" in2="shape" result="effect1_innerShadow_47_4"/>
</filter>
<filter id="filter1_i_47_4" x="224.234" y="163.545" width="150.639" height="276.728" filterUnits="userSpaceOnUse" color-interpolation-filters="sRGB">
<feFlood flood-opacity="0" result="BackgroundImageFix"/>
<feBlend mode="normal" in="SourceGraphic" in2="BackgroundImageFix" result="shape"/>
<feColorMatrix in="SourceAlpha" type="matrix" values="0 0 0 0 0 0 0 0 0 0 0 0 0 0 0 0 0 0 127 0" result="hardAlpha"/>
<feOffset dy="4"/>
<feGaussianBlur stdDeviation="2"/>
<feComposite in2="hardAlpha" operator="arithmetic" k2="-1" k3="1"/>
<feColorMatrix type="matrix" values="0 0 0 0 0 0 0 0 0 0 0 0 0 0 0 0 0 0 0.25 0"/>
<feBlend mode="normal" in2="shape" result="effect1_innerShadow_47_4"/>
</filter>
</defs>
</svg>
