<svg width="602" height="602" viewBox="0 0 602 602" fill="none" xmlns="http://www.w3.org/2000/svg">
<g filter="url(#filter0_i_47_42)">
<path d="M483.338 1L601 146.731L301 601L1 146.731L104.662 1H199.331H294H388.669H483.338Z" fill="url(#paint0_linear_47_42)"/>
<path d="M483.338 1L601 146.731L301 601L1 146.731L104.662 1H199.331H294H388.669H483.338Z" fill="url(#paint1_linear_47_42)" fill-opacity="0.56"/>
</g>
<path d="M294 1L301 601M294 1H199.331M294 1H388.669M294 1L301 146.731M601 146.731L483.338 1H388.669M601 146.731L301 601M601 146.731H490.338M301 601L1 146.731M301 601L490.338 146.731M301 601L111.662 146.731M1 146.731L104.662 1H199.331M1 146.731H111.662M111.662 146.731L199.331 1M111.662 146.731H301M490.338 146.731L388.669 1M490.338 146.731H301" stroke="black"/>
<defs>
<filter id="filter0_i_47_42" x="0.39386" y="0.5" width="601.225" height="601.407" filterUnits="userSpaceOnUse" color-interpolation-filters="sRGB">
<feFlood flood-opacity="0" result="BackgroundImageFix"/>
<feBlend mode="normal" in="SourceGraphic" in2="BackgroundImageFix" result="shape"/>
<feColorMatrix in="SourceAlpha" type="matrix" values="0 0 0 0 0 0 0 0 0 0 0 0 0 0 0 0 0 0 127 0" result="hardAlpha"/>
<feOffset/>
<feGaussianBlur stdDeviation="25"/>
<feComposite in2="hardAlpha" operator="arithmetic" k2="-1" k3="1"/>
<feColorMatrix type="matrix" values="0 0 0 0 0 0 0 0 0 0.28 0 0 0 0 1 0 0 0 0.2 0"/>
<feBlend mode="normal" in2="shape" result="effect1_innerShadow_47_42"/>
</filter>
<linearGradient id="paint0_linear_47_42" x1="301" y1="-74.4934" x2="301" y2="601" gradientUnits="userSpaceOnUse">
<stop stop-color="#02E1FF"/>
<stop offset="1" stop-color="#064CFF"/>
</linearGradient>
<linearGradient id="paint1_linear_47_42" x1="301" y1="-74.4934" x2="301" y2="601" gradientUnits="userSpaceOnUse">
<stop stop-color="#048FCB"/>
<stop offset="0.225" stop-color="#A2C5C7"/>
<stop offset="1" stop-color="#282828"/>
</linearGradient>
</defs>
</svg>
